<mxfile host="app.diagrams.net" modified="2023-10-24T02:11:48.987Z" agent="Mozilla/5.0 (Windows NT 10.0; Win64; x64) AppleWebKit/537.36 (KHTML, like Gecko) Chrome/118.0.0.0 Safari/537.36" etag="TVnjBAn6g1wGqDSeaywj" version="22.0.6" type="github">
  <diagram name="PÃ¡gina-1" id="PYHdCMtaZ9K6iWC_R7Uq">
    <mxGraphModel dx="981" dy="676" grid="1" gridSize="10" guides="1" tooltips="1" connect="1" arrows="1" fold="1" page="1" pageScale="1" pageWidth="827" pageHeight="1169" math="0" shadow="0">
      <root>
        <mxCell id="0" />
        <mxCell id="1" parent="0" />
        <mxCell id="VWmujf-tKI-zSH2csgcB-4" value="" style="sketch=0;outlineConnect=0;fontColor=#232F3E;gradientColor=none;fillColor=#232F3D;strokeColor=none;dashed=0;verticalLabelPosition=bottom;verticalAlign=top;align=center;html=1;fontSize=12;fontStyle=0;aspect=fixed;pointerEvents=1;shape=mxgraph.aws4.users;" vertex="1" parent="1">
          <mxGeometry x="20" y="444" width="46" height="46" as="geometry" />
        </mxCell>
        <mxCell id="VWmujf-tKI-zSH2csgcB-7" value="Interfaz de usuario" style="text;html=1;strokeColor=none;fillColor=none;align=center;verticalAlign=middle;whiteSpace=wrap;rounded=0;" vertex="1" parent="1">
          <mxGeometry x="150" y="484" width="60" height="30" as="geometry" />
        </mxCell>
        <mxCell id="VWmujf-tKI-zSH2csgcB-8" value="" style="sketch=0;pointerEvents=1;shadow=0;dashed=0;html=1;strokeColor=none;fillColor=#505050;labelPosition=center;verticalLabelPosition=bottom;verticalAlign=top;outlineConnect=0;align=center;shape=mxgraph.office.servers.office_web_apps_server;" vertex="1" parent="1">
          <mxGeometry x="800" y="600" width="52" height="56" as="geometry" />
        </mxCell>
        <mxCell id="VWmujf-tKI-zSH2csgcB-13" value="&lt;font style=&quot;font-size: 10px;&quot;&gt;DIGITAL OCEAN&lt;/font&gt;" style="text;html=1;strokeColor=none;fillColor=none;align=center;verticalAlign=middle;whiteSpace=wrap;rounded=0;" vertex="1" parent="1">
          <mxGeometry x="410" y="414" width="60" height="30" as="geometry" />
        </mxCell>
        <mxCell id="VWmujf-tKI-zSH2csgcB-16" value="" style="shape=image;html=1;verticalAlign=top;verticalLabelPosition=bottom;labelBackgroundColor=#ffffff;imageAspect=0;aspect=fixed;image=https://cdn2.iconfinder.com/data/icons/css-vol-1/24/digitalocean-128.png;fillColor=#3333FF;" vertex="1" parent="1">
          <mxGeometry x="370" y="394" width="50" height="50" as="geometry" />
        </mxCell>
        <mxCell id="VWmujf-tKI-zSH2csgcB-19" value="" style="image;aspect=fixed;perimeter=ellipsePerimeter;html=1;align=center;shadow=0;dashed=0;spacingTop=3;image=img/lib/active_directory/pda.svg;" vertex="1" parent="1">
          <mxGeometry x="160" y="430" width="27" height="50" as="geometry" />
        </mxCell>
        <mxCell id="VWmujf-tKI-zSH2csgcB-20" value="" style="strokeColor=#dddddd;shadow=1;strokeWidth=1;rounded=1;absoluteArcSize=1;arcSize=2;" vertex="1" parent="1">
          <mxGeometry x="280" y="454" width="90" height="36" as="geometry" />
        </mxCell>
        <mxCell id="VWmujf-tKI-zSH2csgcB-21" value="&lt;font style=&quot;font-size: 8px;&quot;&gt;API SERVER&lt;/font&gt;" style="sketch=0;dashed=0;connectable=0;html=1;fillColor=#757575;strokeColor=none;shape=mxgraph.gcp2.logs_api;part=1;labelPosition=right;verticalLabelPosition=middle;align=left;verticalAlign=middle;spacingLeft=5;fontSize=12;" vertex="1" parent="VWmujf-tKI-zSH2csgcB-20">
          <mxGeometry y="0.5" width="32" height="32" relative="1" as="geometry">
            <mxPoint x="5" y="-16" as="offset" />
          </mxGeometry>
        </mxCell>
        <mxCell id="VWmujf-tKI-zSH2csgcB-24" value="" style="shape=ext;double=1;rounded=0;whiteSpace=wrap;html=1;fillColor=none;" vertex="1" parent="1">
          <mxGeometry x="264" y="434" width="120" height="80" as="geometry" />
        </mxCell>
        <mxCell id="VWmujf-tKI-zSH2csgcB-26" style="edgeStyle=orthogonalEdgeStyle;rounded=0;orthogonalLoop=1;jettySize=auto;html=1;exitX=1;exitY=0.75;exitDx=0;exitDy=0;entryX=-0.033;entryY=0.4;entryDx=0;entryDy=0;entryPerimeter=0;" edge="1" parent="1" source="VWmujf-tKI-zSH2csgcB-19" target="VWmujf-tKI-zSH2csgcB-24">
          <mxGeometry relative="1" as="geometry" />
        </mxCell>
        <mxCell id="VWmujf-tKI-zSH2csgcB-17" style="edgeStyle=orthogonalEdgeStyle;rounded=0;orthogonalLoop=1;jettySize=auto;html=1;entryX=0;entryY=0.75;entryDx=0;entryDy=0;" edge="1" parent="1" source="VWmujf-tKI-zSH2csgcB-4">
          <mxGeometry relative="1" as="geometry">
            <mxPoint x="150" y="475" as="targetPoint" />
          </mxGeometry>
        </mxCell>
        <mxCell id="PNPp258NkE-0I14bSV6u-2" value="" style="outlineConnect=0;dashed=0;verticalLabelPosition=bottom;verticalAlign=top;align=center;html=1;shape=mxgraph.aws3.mysql_db_instance;fillColor=#2E73B8;gradientColor=none;" vertex="1" parent="1">
          <mxGeometry x="350" y="700" width="80" height="90" as="geometry" />
        </mxCell>
        <mxCell id="PNPp258NkE-0I14bSV6u-3" value="" style="verticalLabelPosition=bottom;html=1;verticalAlign=top;align=center;strokeColor=none;fillColor=#00BEF2;shape=mxgraph.azure.sql_database_sql_azure;" vertex="1" parent="1">
          <mxGeometry x="548" y="710" width="46" height="50" as="geometry" />
        </mxCell>
        <mxCell id="PNPp258NkE-0I14bSV6u-4" value="" style="sketch=0;html=1;aspect=fixed;strokeColor=none;shadow=0;fillColor=#3B8DF1;verticalAlign=top;labelPosition=center;verticalLabelPosition=bottom;shape=mxgraph.gcp2.cloud_computer" vertex="1" parent="1">
          <mxGeometry x="530" y="640" width="56.82" height="50" as="geometry" />
        </mxCell>
        <mxCell id="PNPp258NkE-0I14bSV6u-5" value="" style="shape=ext;double=1;rounded=0;whiteSpace=wrap;html=1;fillColor=none;" vertex="1" parent="1">
          <mxGeometry x="520" y="700" width="90" height="75" as="geometry" />
        </mxCell>
        <mxCell id="PNPp258NkE-0I14bSV6u-7" style="edgeStyle=orthogonalEdgeStyle;rounded=0;orthogonalLoop=1;jettySize=auto;html=1;entryX=0;entryY=0.24;entryDx=0;entryDy=0;entryPerimeter=0;" edge="1" parent="1" source="PNPp258NkE-0I14bSV6u-2" target="PNPp258NkE-0I14bSV6u-4">
          <mxGeometry relative="1" as="geometry" />
        </mxCell>
        <mxCell id="PNPp258NkE-0I14bSV6u-8" value="SERVER" style="text;html=1;strokeColor=none;fillColor=none;align=center;verticalAlign=middle;whiteSpace=wrap;rounded=0;" vertex="1" parent="1">
          <mxGeometry x="360" y="800" width="60" height="30" as="geometry" />
        </mxCell>
        <mxCell id="DCMEr2MCYlSlxjlWm61J-10" value="&lt;b&gt;Google &lt;/b&gt;Cloud Platform" style="fillColor=#F6F6F6;strokeColor=none;shadow=0;gradientColor=none;fontSize=14;align=left;spacing=10;fontColor=#717171;9E9E9E;verticalAlign=top;spacingTop=-4;fontStyle=0;spacingLeft=40;html=1;whiteSpace=wrap;" vertex="1" parent="1">
          <mxGeometry x="920" y="44" width="597.81" height="370" as="geometry" />
        </mxCell>
        <mxCell id="DCMEr2MCYlSlxjlWm61J-11" value="" style="shape=mxgraph.gcp2.google_cloud_platform;fillColor=#F6F6F6;strokeColor=none;shadow=0;gradientColor=none;" vertex="1" parent="DCMEr2MCYlSlxjlWm61J-10">
          <mxGeometry width="23" height="20" relative="1" as="geometry">
            <mxPoint x="20" y="10" as="offset" />
          </mxGeometry>
        </mxCell>
        <mxCell id="DCMEr2MCYlSlxjlWm61J-5" value="Public Cloud" style="shape=mxgraph.ibm.box;prType=public;fontStyle=0;verticalAlign=top;align=left;spacingLeft=32;spacingTop=4;fillColor=none;rounded=0;whiteSpace=wrap;html=1;strokeColor=#4376BB;strokeWidth=3;dashed=0;container=1;spacing=-4;collapsible=0;expand=0;recursiveResize=0;" vertex="1" parent="DCMEr2MCYlSlxjlWm61J-10">
          <mxGeometry x="57.29" y="39.5" width="522.71" height="310.5" as="geometry" />
        </mxCell>
        <mxCell id="gVTh78AQYbCyY5CRqsvb-1" value="" style="sketch=0;html=1;aspect=fixed;strokeColor=none;shadow=0;fillColor=#3B8DF1;verticalAlign=top;labelPosition=center;verticalLabelPosition=bottom;shape=mxgraph.gcp2.phone_android" vertex="1" parent="DCMEr2MCYlSlxjlWm61J-5">
          <mxGeometry x="436.19741379310346" y="186.5405405405405" width="38.91724137931035" height="69.49970689655173" as="geometry" />
        </mxCell>
        <mxCell id="gVTh78AQYbCyY5CRqsvb-2" value="" style="verticalLabelPosition=bottom;html=1;verticalAlign=top;align=center;strokeColor=none;fillColor=#00BEF2;shape=mxgraph.azure.laptop;pointerEvents=1;" vertex="1" parent="DCMEr2MCYlSlxjlWm61J-5">
          <mxGeometry x="421.6034482758621" y="26.335135135135133" width="68.1051724137931" height="54.864864864864856" as="geometry" />
        </mxCell>
        <mxCell id="gVTh78AQYbCyY5CRqsvb-9" value="" style="strokeColor=#dddddd;shadow=1;strokeWidth=1;rounded=1;absoluteArcSize=1;arcSize=2;" vertex="1" parent="DCMEr2MCYlSlxjlWm61J-5">
          <mxGeometry x="254.32999999999998" y="126.5" width="124.85" height="41.43" as="geometry" />
        </mxCell>
        <mxCell id="gVTh78AQYbCyY5CRqsvb-10" value="HTTPS&#xa;Load Balancer" style="sketch=0;dashed=0;connectable=0;html=1;fillColor=#757575;strokeColor=none;shape=mxgraph.gcp2.network_load_balancer;part=1;labelPosition=right;verticalLabelPosition=middle;align=left;verticalAlign=middle;spacingLeft=5;fontSize=12;" vertex="1" parent="gVTh78AQYbCyY5CRqsvb-9">
          <mxGeometry y="0.5" width="32" height="32" relative="1" as="geometry">
            <mxPoint x="5" y="-16" as="offset" />
          </mxGeometry>
        </mxCell>
        <mxCell id="gVTh78AQYbCyY5CRqsvb-13" value="" style="image;aspect=fixed;perimeter=ellipsePerimeter;html=1;align=center;shadow=0;dashed=0;spacingTop=3;image=img/lib/active_directory/sub_site.svg;" vertex="1" parent="DCMEr2MCYlSlxjlWm61J-5">
          <mxGeometry x="262.70189655172413" y="201.9027027027027" width="108.10344827586206" height="92.96896551724137" as="geometry" />
        </mxCell>
        <mxCell id="gVTh78AQYbCyY5CRqsvb-14" value="" style="endArrow=none;html=1;rounded=0;" edge="1" parent="DCMEr2MCYlSlxjlWm61J-5">
          <mxGeometry width="50" height="50" relative="1" as="geometry">
            <mxPoint x="382.7051724137931" y="147.4972972972973" as="sourcePoint" />
            <mxPoint x="454.0344827586207" y="147.06648648648647" as="targetPoint" />
          </mxGeometry>
        </mxCell>
        <mxCell id="gVTh78AQYbCyY5CRqsvb-15" value="" style="endArrow=none;html=1;rounded=0;entryX=0.5;entryY=1;entryDx=0;entryDy=0;entryPerimeter=0;exitX=0.486;exitY=0.058;exitDx=0;exitDy=0;exitPerimeter=0;" edge="1" parent="DCMEr2MCYlSlxjlWm61J-5" source="gVTh78AQYbCyY5CRqsvb-1" target="gVTh78AQYbCyY5CRqsvb-2">
          <mxGeometry width="50" height="50" relative="1" as="geometry">
            <mxPoint x="173.50603448275862" y="454.281081081081" as="sourcePoint" />
            <mxPoint x="227.55775862068967" y="399.4162162162162" as="targetPoint" />
          </mxGeometry>
        </mxCell>
        <mxCell id="gVTh78AQYbCyY5CRqsvb-16" value="" style="endArrow=none;html=1;rounded=0;" edge="1" parent="DCMEr2MCYlSlxjlWm61J-5" source="gVTh78AQYbCyY5CRqsvb-13" target="gVTh78AQYbCyY5CRqsvb-9">
          <mxGeometry width="50" height="50" relative="1" as="geometry">
            <mxPoint x="173.50603448275862" y="454.281081081081" as="sourcePoint" />
            <mxPoint x="227.55775862068967" y="399.4162162162162" as="targetPoint" />
          </mxGeometry>
        </mxCell>
        <mxCell id="C2ZDBiY_TgjYJY3wDgOf-1" value="" style="strokeColor=#dddddd;shadow=1;strokeWidth=1;rounded=1;absoluteArcSize=1;arcSize=2;" vertex="1" parent="DCMEr2MCYlSlxjlWm61J-5">
          <mxGeometry x="32.7" y="138.26" width="187.3" height="51.74" as="geometry" />
        </mxCell>
        <mxCell id="C2ZDBiY_TgjYJY3wDgOf-2" value="Bucket" style="sketch=0;dashed=0;connectable=0;html=1;fillColor=#757575;strokeColor=none;shape=mxgraph.gcp2.bucket;part=1;labelPosition=right;verticalLabelPosition=middle;align=left;verticalAlign=middle;spacingLeft=5;fontSize=12;" vertex="1" parent="C2ZDBiY_TgjYJY3wDgOf-1">
          <mxGeometry y="0.5" width="32" height="32" relative="1" as="geometry">
            <mxPoint x="5" y="-16" as="offset" />
          </mxGeometry>
        </mxCell>
        <mxCell id="C2ZDBiY_TgjYJY3wDgOf-3" value="" style="shape=mxgraph.gcp2.doubleRect;strokeColor=#dddddd;shadow=1;strokeWidth=1;rounded=1;absoluteArcSize=1;arcSize=2;" vertex="1" parent="DCMEr2MCYlSlxjlWm61J-5">
          <mxGeometry x="22.71" y="37.54" width="197.29" height="72.46" as="geometry" />
        </mxCell>
        <mxCell id="C2ZDBiY_TgjYJY3wDgOf-4" value="&lt;font color=&quot;#000000&quot;&gt;Compute Resources&lt;/font&gt;&lt;br&gt;Compute Engine" style="editableCssRules=.*;html=1;fontColor=#999999;shape=image;verticalLabelPosition=middle;labelBackgroundColor=#ffffff;verticalAlign=middle;labelPosition=right;align=left;spacingLeft=20;part=1;points=[];imageAspect=0;image=data:image/svg+xml,PHN2ZyB4bWxucz0iaHR0cDovL3d3dy53My5vcmcvMjAwMC9zdmciIHhtbG5zOnY9Imh0dHBzOi8vdmVjdGEuaW8vbmFubyIgd2lkdGg9IjE2LjQyMDAwMDA3NjI5Mzk0NSIgaGVpZ2h0PSIyMC4wNDk5OTkyMzcwNjA1NDciIGZpbGwtcnVsZT0iZXZlbm9kZCIgdmlld0JveD0iMCAwIDE2LjQyMDAwMDA3NjI5Mzk0NSAyMC4wNDk5OTkyMzcwNjA1NDciPiYjeGE7CTxzdHlsZSB0eXBlPSJ0ZXh0L2NzcyI+JiN4YTsJLnN0MHtmaWxsOiM0Mjg1ZjQ7fSYjeGE7CS5zdDF7ZmlsbDojNjY5ZGY2O30mI3hhOwk8L3N0eWxlPiYjeGE7CTxwYXRoIGNsYXNzPSJzdDEiIGQ9Ik04LjIxIDBMMCAzLjQydjUuNjNjMCA1LjA2IDMuNSA5LjggOC4yMSAxMSA0LjcxLTEuMTUgOC4yMS01Ljg5IDguMjEtMTAuOTVWMy40MnptMCAzLjc5YTIuNjMgMi42MyAwIDAgMSAxLjAwNSA1LjA2QTIuNjMgMi42MyAwIDAgMSA2LjM1IDQuNTZhMi42MyAyLjYzIDAgMCAxIDEuODYtLjc3em00LjExIDExLjE1YTguNjQgOC42NCAwIDAgMS00LjExIDIuOTMgOC42NCA4LjY0IDAgMCAxLTQuMTEtMi45M3YtMi4yNWMwLTEuNjcgMi43NC0yLjUyIDQuMTEtMi41MnM0LjExLjg1IDQuMTEgMi41MnoiLz4mI3hhOwk8cGF0aCBjbGFzcz0ic3QwIiBkPSJNOC4yMSAwdjMuNzlhMi42MyAyLjYzIDAgMSAxIDAgNS4yNnYxLjEyYzEuMzcgMCA0LjExLjg1IDQuMTEgMi41MnYyLjI1YTguNjQgOC42NCAwIDAgMS00LjExIDIuOTNWMjBjNC43MS0xLjE1IDguMjEtNS44OSA4LjIxLTEwLjk1VjMuNDJ6Ii8+JiN4YTs8L3N2Zz4=;" vertex="1" parent="C2ZDBiY_TgjYJY3wDgOf-3">
          <mxGeometry width="24" height="30" relative="1" as="geometry">
            <mxPoint x="18" y="15" as="offset" />
          </mxGeometry>
        </mxCell>
        <mxCell id="C2ZDBiY_TgjYJY3wDgOf-20" value="" style="strokeColor=#dddddd;shadow=1;strokeWidth=1;rounded=1;absoluteArcSize=1;arcSize=2;" vertex="1" parent="DCMEr2MCYlSlxjlWm61J-5">
          <mxGeometry x="32.700000000000045" y="231.62999999999997" width="187.3" height="51.74" as="geometry" />
        </mxCell>
        <mxCell id="C2ZDBiY_TgjYJY3wDgOf-5" value="GKE On-Prem" style="sketch=0;html=1;verticalAlign=top;labelPosition=center;verticalLabelPosition=bottom;align=center;spacingTop=-6;fontSize=11;fontStyle=1;fontColor=#999999;shape=image;aspect=fixed;imageAspect=0;image=data:image/svg+xml,PHN2ZyB4bWxucz0iaHR0cDovL3d3dy53My5vcmcvMjAwMC9zdmciIHhtbG5zOnY9Imh0dHBzOi8vdmVjdGEuaW8vbmFubyIgd2lkdGg9IjQwMi4zNDMyMDA2ODM1OTM3NSIgaGVpZ2h0PSI0MTYuMDAyNTMyOTU4OTg0NCIgdmlld0JveD0iMCAwLjAwMDQ5OTk2Mzc2MDM3NTk3NjYgNDAyLjM0MzIwMDY4MzU5Mzc1IDQxNi4wMDI1MzI5NTg5ODQ0Ij4mI3hhOwk8c3R5bGUgdHlwZT0idGV4dC9jc3MiPiYjeGE7CS5zdDB7ZmlsbDojNDI4NWY0O30mI3hhOwkuc3Qxe2ZpbGw6IzY2OWRmNjt9JiN4YTsJLnN0MntmaWxsOiNhZWNiZmE7fSYjeGE7CTwvc3R5bGU+JiN4YTsJPHBhdGggY2xhc3M9InN0MiIgZD0iTTM2Ni4xNyA5Mi4wMDNjLTE5LjA1IDAtMzYgMTYuODItMzYgMzUuNzYgMCAxMi42MiA4LjQ2IDI1LjI0IDE5LjA1IDMxLjU1djE0Ny4zbC0xMTAuMDUgNjUuMjEgMTYuOTMgMjcuMzUgMTE4LjUxLTY5LjQyYzQuMjQtMi4xIDguNDctOC40MSA4LjQ3LTE0Ljczdi0xNTUuNjdjMTIuNzEtNi4zNSAxOS4wOS0xOC45MyAxOS4wOS0zMS41NSAyLjA4LTE4Ljk0LTE0Ljg1LTM1LjgtMzYtMzUuOHptLTM4LjExLTIzLjFMMjA5LjU1IDEuNTgzYy00LjI0LTIuMTEtMTAuNTktMi4xMS0xNi45MyAwTDU3LjE3IDc5LjQxM0EzNiAzNiAwIDAgMCAzNiA3My4xMDNjLTE5IDAtMzYgMTYuODMtMzYgMzUuNzZzMTYuOTMgMzUuNzcgMzYgMzUuNzcgMzYtMTYuODMgMzYtMzUuNzdsMTI5LjEtNzMuNjIgMTEwIDYzLjExem0tMTQzLjg5IDI3Ny42OHEtOS41MyAwLTE5IDYuMzFsLTExMC02My4xMXYtMTI2LjIyaC0zNHYxMzQuNjNjMCA2LjMyIDQuMjMgMTIuNjMgOC40NiAxNC43M2wxMTguNTQgNjUuMjF2Mi4xMWMwIDE4LjkzIDE2LjkzIDM1Ljc2IDM2IDM1Ljc2czM2LTE2LjgzIDM2LTM1Ljc2LTE3LTMzLjY2LTM2LTMzLjY2eiIvPiYjeGE7CTxwYXRoIGNsYXNzPSJzdDEiIGQ9Ik05Ny4zOCAxMzYuMjEzbDEwNS44MiA1OC45MSAxMDMuNy01OC45MS0xMDMuNy02MXptLTYuMzUgNjcuMzJsMTEyLjE3IDYzLjExdi01MC40OWwtMTEyLjE3LTY1LjIxem0wIDYzLjExbDExMi4xNyA2NS4yMXYtNDQuMTdsLTExMi4xNy02NS4yMnoiLz4mI3hhOwk8cGF0aCBjbGFzcz0ic3QwIiBkPSJNMjAzLjE3IDIxNi4xMjN2NTAuNTZsMTEyLjE2LTY1LjI5di01MC4zOXptOTItMjBhOC4xNiA4LjE2IDAgMSAxIDguMTYtOC4xNiA4LjE5IDguMTkgMCAwIDEtOC4xNiA4LjE2em0tOTIgOTEuNTJ2NDQuMTZsMTEyLjE2LTY1LjEydi00NC4xNnptOTItMjIuODhhOC4xNiA4LjE2IDAgMSAxIDguMTYtOC4xNiA4LjE5IDguMTkgMCAwIDEtOC4xNiA4LjE2eiIvPiYjeGE7PC9zdmc+;" vertex="1" parent="DCMEr2MCYlSlxjlWm61J-5">
          <mxGeometry x="60" y="236.47" width="22.71" height="23.84" as="geometry" />
        </mxCell>
        <mxCell id="u9EeXodBYB1JETkUCgQ6-1" value="" style="verticalLabelPosition=bottom;html=1;verticalAlign=top;align=center;strokeColor=none;fillColor=#00BEF2;shape=mxgraph.azure.computer;pointerEvents=1;" vertex="1" parent="1">
          <mxGeometry x="50" y="732.5" width="50" height="45" as="geometry" />
        </mxCell>
        <mxCell id="u9EeXodBYB1JETkUCgQ6-2" style="edgeStyle=orthogonalEdgeStyle;rounded=0;orthogonalLoop=1;jettySize=auto;html=1;entryX=0;entryY=0.5;entryDx=0;entryDy=0;entryPerimeter=0;exitX=0.342;exitY=1.013;exitDx=0;exitDy=0;exitPerimeter=0;" edge="1" parent="1" source="VWmujf-tKI-zSH2csgcB-24" target="PNPp258NkE-0I14bSV6u-2">
          <mxGeometry relative="1" as="geometry">
            <mxPoint x="270" y="745" as="sourcePoint" />
          </mxGeometry>
        </mxCell>
        <mxCell id="DCMEr2MCYlSlxjlWm61J-18" style="edgeStyle=none;rounded=0;orthogonalLoop=1;jettySize=auto;html=1;exitX=1;exitY=0.5;exitDx=0;exitDy=0;" edge="1" parent="1" source="DCMEr2MCYlSlxjlWm61J-16" target="DCMEr2MCYlSlxjlWm61J-5">
          <mxGeometry relative="1" as="geometry" />
        </mxCell>
        <mxCell id="DCMEr2MCYlSlxjlWm61J-16" value="" style="strokeColor=#dddddd;shadow=1;strokeWidth=1;rounded=1;absoluteArcSize=1;arcSize=2;" vertex="1" parent="1">
          <mxGeometry x="750" y="210" width="130" height="60" as="geometry" />
        </mxCell>
        <mxCell id="DCMEr2MCYlSlxjlWm61J-17" value="Compute&#xa;Engine" style="editableCssRules=.*;html=1;fontColor=#999999;shape=image;verticalLabelPosition=middle;labelBackgroundColor=#ffffff;verticalAlign=middle;labelPosition=right;align=left;spacingLeft=20;part=1;points=[];imageAspect=0;image=data:image/svg+xml,PHN2ZyB4bWxucz0iaHR0cDovL3d3dy53My5vcmcvMjAwMC9zdmciIHhtbG5zOnY9Imh0dHBzOi8vdmVjdGEuaW8vbmFubyIgd2lkdGg9IjIwIiBoZWlnaHQ9IjIwIiB2aWV3Qm94PSIwIDAgMjAgMjAiPiYjeGE7CTxzdHlsZSB0eXBlPSJ0ZXh0L2NzcyI+JiN4YTsJLnN0MHtmaWxsOiM0Mjg1ZjQ7fSYjeGE7CS5zdDF7ZmlsbDojNjY5ZGY2O30mI3hhOwkuc3Qye2ZpbGw6I2FlY2JmYTt9JiN4YTsJPC9zdHlsZT4mI3hhOwk8cGF0aCBjbGFzcz0ic3QyIiBkPSJNNyA3aDZ2Nkg3eiIvPiYjeGE7CTxwYXRoIGNsYXNzPSJzdDEiIGQ9Ik05IDBoMnY0SDl6TTUgMGgydjRINXptOCAwaDJ2NGgtMnoiLz4mI3hhOwk8cGF0aCBjbGFzcz0ic3QwIiBkPSJNOSAxNmgydjRIOXptLTQgMGgydjRINXptOCAwaDJ2NGgtMnptMy01VjloNHYyem0wIDR2LTJoNHYyem0wLThWNWg0djJ6Ii8+JiN4YTsJPHBhdGggY2xhc3M9InN0MSIgZD0iTTAgMTFWOWg0djJ6bTAgNHYtMmg0djJ6bTAtOFY1aDR2MnoiLz4mI3hhOwk8cGF0aCBjbGFzcz0ic3QyIiBkPSJNMyAzdjE0aDE0VjN6bTEyIDEySDVWNWgxMHoiLz4mI3hhOwk8cGF0aCBjbGFzcz0ic3QxIiBkPSJNMTAgMTBsLTMgM2g2eiIvPiYjeGE7CTxwYXRoIGNsYXNzPSJzdDAiIGQ9Ik0xMyA3bC0zIDMgMyAzeiIvPiYjeGE7PC9zdmc+;" vertex="1" parent="DCMEr2MCYlSlxjlWm61J-16">
          <mxGeometry width="30" height="30" relative="1" as="geometry">
            <mxPoint x="15" y="15" as="offset" />
          </mxGeometry>
        </mxCell>
      </root>
    </mxGraphModel>
  </diagram>
</mxfile>
